<?xml version="1.0" standalone="no"?>
<!DOCTYPE svg PUBLIC "-//W3C//DTD SVG 20010904//EN"
 "http://www.w3.org/TR/2001/REC-SVG-20010904/DTD/svg10.dtd">
<svg version="1.0" xmlns="http://www.w3.org/2000/svg"
 width="512.000000pt" height="512.000000pt" viewBox="0 0 512.000000 512.000000"
 preserveAspectRatio="xMidYMid meet">
<metadata>
Created by potrace 1.14, written by Peter Selinger 2001-2017
</metadata>
<g transform="translate(0.000000,512.000000) scale(0.100000,-0.100000)"
fill="#000000" stroke="none">
<path d="M3665 4565 c0 -201 -2 -365 -5 -366 -3 0 -14 -2 -25 -4 -11 -2 -51
-6 -90 -9 -413 -33 -813 -166 -1120 -371 -452 -302 -744 -732 -884 -1300 -37
-151 -53 -246 -66 -390 -4 -38 -8 -75 -10 -82 -2 -7 0 -15 5 -18 6 -4 10 -2
10 2 0 11 68 90 155 181 187 194 427 358 660 451 99 40 244 85 300 94 17 3 57
10 90 16 119 23 224 29 425 26 113 -2 214 -6 225 -8 11 -3 45 -8 76 -11 31 -4
65 -8 75 -10 11 -2 53 -9 96 -16 65 -11 77 -16 80 -34 2 -11 3 -175 3 -363 0
-189 2 -343 5 -343 2 0 131 128 286 285 155 157 480 486 723 731 l442 446 -68
68 c-37 37 -362 365 -722 729 -360 363 -657 661 -661 661 -3 0 -5 -164 -5
-365z"/>
<path d="M330 3950 c-114 -5 -130 -8 -179 -35 -64 -36 -105 -82 -131 -153 -20
-52 -20 -83 -20 -1685 0 -898 3 -1649 6 -1670 16 -92 109 -192 206 -218 43
-11 4015 -15 4073 -4 48 10 124 56 154 94 71 91 66 21 69 880 l2 774 -152
-151 c-84 -83 -214 -211 -289 -284 l-135 -133 1 -290 c0 -160 -1 -297 -3 -305
-3 -14 -178 -16 -1675 -16 -920 0 -1674 3 -1677 7 -3 4 -5 594 -5 1311 l0
1303 342 1 c188 0 344 2 346 5 2 2 28 38 58 79 93 128 197 248 320 369 66 64
119 119 119 121 0 7 -1278 6 -1430 0z"/>
</g>
</svg>
